# xmcd
#
# Track frame offsets:
#	150
#	18302
#	40963
#	60258
#	74905
#	97601
#	119274
#	136770
#	156825
#	173718
#	192409
#	211482
#	225156
#	241159
#	255887
#	285699
#	306769
#
# Disc length: 4302 seconds
#
# Revision: 1
# Processed by: cddbd v1.5.2PL0 Copyright (c) Steve Scherf et al.
# Submitted via: audiograbber 1.83.01
#
DISCID=da10cc11
DTITLE=Gray, Macy - The Very Best Of Macy Gray
DYEAR=2004
DGENRE=Blues Pop
TTITLE0=I Try (Album Version)
TTITLE1=Do Something  (Album Version)
TTITLE2=Still  (Album Version)
TTITLE3=Why Didn't You Call Me  (Album Version)
TTITLE4=I've Committed Murder  (Album Version)
TTITLE5=Sexual Revolution  (Album Version)
TTITLE6=Sweet Baby (featuring Erykah Badu) (Album Version)
TTITLE7=Boo  (Album Version)
TTITLE8=When I See You  (Album Version)
TTITLE9=It Ain't The Money (featuring Pharoahe Monch) (Album Version)
TTITLE10=She Ain't Right For You  (Album Version)
TTITLE11=Love Is Gonna Get You (Album Version)
TTITLE12=Walk This Way  (Album Version)
TTITLE13=Demons  (Album Version)
TTITLE14=When I See You  (Bugz In The Attic Remix)
TTITLE15=I've Committed Murder  (Gang Starr Remix - Main Street mix)
TTITLE16=Sexual Revolution  (Norman Cook Radio Version@ 128bpm)
EXTD=
EXTT0=
EXTT1=
EXTT2=
EXTT3=
EXTT4=
EXTT5=
EXTT6=
EXTT7=
EXTT8=
EXTT9=
EXTT10=
EXTT11=
EXTT12=
EXTT13=
EXTT14=
EXTT15=
EXTT16=
PLAYORDER=
